<svg width="280" height="155" viewBox="0 0 280 155" fill="none" xmlns="http://www.w3.org/2000/svg">
<g clip-path="url(#clip0_358_20566)">
<rect width="280" height="155" rx="11" fill="#F1F4FE"/>
<g clip-path="url(#clip1_358_20566)">
<g clip-path="url(#clip2_358_20566)">
<rect x="36.5797" y="17.8931" width="15.1614" height="27.3167" fill="#FF5F00"/>
<path d="M37.4946 31.6168C37.4946 26.2581 39.978 21.2914 44.1604 17.8931C36.5798 12.0115 25.7316 13.3186 19.7191 20.7685C13.8375 28.3492 15.1446 39.1975 22.5946 45.2098C28.8683 50.1765 37.756 50.1765 44.0297 45.2098C39.978 41.9423 37.4946 36.9756 37.4946 31.6168Z" fill="#EB001B"/>
<path fill-rule="evenodd" clip-rule="evenodd" d="M72.2609 31.6167C72.2609 41.1579 64.5495 49 54.8775 49C50.9566 49 47.1662 47.693 44.16 45.3404C51.7406 39.4588 53.0478 28.4798 47.0355 21.0298C46.1205 19.9842 45.2056 18.9386 44.16 18.1543C51.7406 12.2728 62.5889 13.5798 68.4704 21.0298C70.9538 23.9053 72.2609 27.6956 72.2609 31.6167ZM70.5619 42.3342V41.8114H70.8232V41.6808H70.3003V41.8114H70.5619V42.3342ZM71.7381 42.3342V41.6808H71.6074L71.346 42.2035L71.0846 41.6808H70.9538V42.3342H71.0846V41.8114L71.346 42.2035H71.4766L71.6073 41.8114V42.3342H71.7381Z" fill="#F79E1B"/>
</g>
<path d="M16.91 120V112.95H17.97V115.97H21.88V112.95H22.95V120H21.88V116.88H17.97V120H16.91ZM29.0916 120.09C28.1516 120.09 27.4316 119.847 26.9316 119.36C26.4382 118.867 26.1916 118.143 26.1916 117.19V112.95H27.2616V117.17C27.2616 117.837 27.4149 118.333 27.7216 118.66C28.0349 118.98 28.4916 119.14 29.0916 119.14C29.6916 119.14 30.1449 118.98 30.4516 118.66C30.7649 118.333 30.9216 117.837 30.9216 117.17V112.95H31.9816V117.19C31.9816 118.143 31.7349 118.867 31.2416 119.36C30.7482 119.847 30.0316 120.09 29.0916 120.09ZM37.6223 120.09C37.2423 120.09 36.8823 120.06 36.5423 120C36.2023 119.94 35.8889 119.853 35.6023 119.74C35.3223 119.62 35.0723 119.473 34.8523 119.3L35.2123 118.44C35.4389 118.607 35.6756 118.747 35.9223 118.86C36.1689 118.967 36.4323 119.047 36.7123 119.1C36.9989 119.147 37.3023 119.17 37.6223 119.17C38.1689 119.17 38.5756 119.07 38.8423 118.87C39.1156 118.67 39.2523 118.403 39.2523 118.07C39.2523 117.89 39.2089 117.74 39.1223 117.62C39.0423 117.493 38.9056 117.39 38.7123 117.31C38.5256 117.223 38.2823 117.15 37.9823 117.09L36.8723 116.87C36.2323 116.743 35.7589 116.52 35.4523 116.2C35.1523 115.88 35.0023 115.467 35.0023 114.96C35.0023 114.533 35.1189 114.163 35.3523 113.85C35.5856 113.537 35.9056 113.293 36.3123 113.12C36.7256 112.947 37.1956 112.86 37.7223 112.86C38.0489 112.86 38.3589 112.89 38.6523 112.95C38.9523 113.01 39.2256 113.103 39.4723 113.23C39.7189 113.35 39.9356 113.5 40.1223 113.68L39.7723 114.52C39.4856 114.26 39.1723 114.073 38.8323 113.96C38.4989 113.84 38.1256 113.78 37.7123 113.78C37.3856 113.78 37.0989 113.827 36.8523 113.92C36.6056 114.013 36.4123 114.147 36.2723 114.32C36.1389 114.493 36.0723 114.7 36.0723 114.94C36.0723 115.213 36.1589 115.43 36.3323 115.59C36.5056 115.75 36.8056 115.87 37.2323 115.95L38.3323 116.17C39.0056 116.303 39.5056 116.52 39.8323 116.82C40.1589 117.12 40.3223 117.517 40.3223 118.01C40.3223 118.417 40.2123 118.78 39.9923 119.1C39.7723 119.413 39.4589 119.657 39.0523 119.83C38.6456 120.003 38.1689 120.09 37.6223 120.09ZM45.5578 120.09C45.1778 120.09 44.8178 120.06 44.4778 120C44.1378 119.94 43.8245 119.853 43.5378 119.74C43.2578 119.62 43.0078 119.473 42.7878 119.3L43.1478 118.44C43.3745 118.607 43.6111 118.747 43.8578 118.86C44.1045 118.967 44.3678 119.047 44.6478 119.1C44.9345 119.147 45.2378 119.17 45.5578 119.17C46.1045 119.17 46.5111 119.07 46.7778 118.87C47.0511 118.67 47.1878 118.403 47.1878 118.07C47.1878 117.89 47.1445 117.74 47.0578 117.62C46.9778 117.493 46.8411 117.39 46.6478 117.31C46.4611 117.223 46.2178 117.15 45.9178 117.09L44.8078 116.87C44.1678 116.743 43.6945 116.52 43.3878 116.2C43.0878 115.88 42.9378 115.467 42.9378 114.96C42.9378 114.533 43.0545 114.163 43.2878 113.85C43.5211 113.537 43.8411 113.293 44.2478 113.12C44.6611 112.947 45.1311 112.86 45.6578 112.86C45.9845 112.86 46.2945 112.89 46.5878 112.95C46.8878 113.01 47.1611 113.103 47.4078 113.23C47.6545 113.35 47.8711 113.5 48.0578 113.68L47.7078 114.52C47.4211 114.26 47.1078 114.073 46.7678 113.96C46.4345 113.84 46.0611 113.78 45.6478 113.78C45.3211 113.78 45.0345 113.827 44.7878 113.92C44.5411 114.013 44.3478 114.147 44.2078 114.32C44.0745 114.493 44.0078 114.7 44.0078 114.94C44.0078 115.213 44.0945 115.43 44.2678 115.59C44.4411 115.75 44.7411 115.87 45.1678 115.95L46.2678 116.17C46.9411 116.303 47.4411 116.52 47.7678 116.82C48.0945 117.12 48.2578 117.517 48.2578 118.01C48.2578 118.417 48.1478 118.78 47.9278 119.1C47.7078 119.413 47.3945 119.657 46.9878 119.83C46.5811 120.003 46.1045 120.09 45.5578 120.09ZM51.1034 120V112.95H55.7334V113.84H52.1434V115.98H55.5234V116.87H52.1434V119.11H55.7334V120H51.1034ZM58.7655 120V112.95H59.8255V120H58.7655ZM63.1463 120V112.95H64.0063L68.2063 118.49H68.0563V112.95H69.0663V120H68.1863L64.0063 114.47H64.1463V120H63.1463ZM76.6248 120V112.95H77.6848V116.1H77.7248L80.9548 112.95H82.2848L78.4648 116.64L78.5048 116.1L82.4948 120H81.1248L77.7248 116.71H77.6848V120H76.6248ZM84.7752 120V112.95H85.8352V115.97H89.7452V112.95H90.8152V120H89.7452V116.88H85.8352V120H84.7752ZM93.3968 120L96.5368 112.95H97.4468L100.587 120H99.4868L98.6368 118.01L99.1168 118.32H94.8568L95.3368 118.01L94.4868 120H93.3968ZM96.9668 114.13L95.4668 117.69L95.2168 117.44H98.7568L98.5068 117.69L96.9968 114.13H96.9668ZM103.166 120V112.95H104.226V119.08H107.716V120H103.166ZM110.379 120V112.95H115.009V113.84H111.419V115.98H114.799V116.87H111.419V119.11H115.009V120H110.379ZM118.041 120V112.95H120.581C121.348 112.95 121.998 113.087 122.531 113.36C123.071 113.633 123.481 114.033 123.761 114.56C124.048 115.08 124.191 115.717 124.191 116.47C124.191 117.223 124.048 117.863 123.761 118.39C123.481 118.917 123.071 119.317 122.531 119.59C121.998 119.863 121.348 120 120.581 120H118.041ZM119.101 119.09H120.511C121.358 119.09 121.994 118.873 122.421 118.44C122.854 118.007 123.071 117.35 123.071 116.47C123.071 115.59 122.854 114.937 122.421 114.51C121.994 114.077 121.358 113.86 120.511 113.86H119.101V119.09Z" fill="#202020"/>
<path d="M232.857 119.15H234.407V120H230.287V119.15H231.827V114.18L230.597 114.93L230.157 114.16L232.117 112.95H232.857V119.15ZM241.973 119.15V120H237.353V119.23L239.783 116.57C240.096 116.23 240.323 115.92 240.463 115.64C240.603 115.36 240.673 115.083 240.673 114.81C240.673 114.45 240.569 114.177 240.363 113.99C240.156 113.803 239.859 113.71 239.473 113.71C238.813 113.71 238.159 113.967 237.513 114.48L237.153 113.72C237.433 113.46 237.786 113.253 238.213 113.1C238.639 112.947 239.069 112.87 239.503 112.87C240.176 112.87 240.709 113.04 241.103 113.38C241.496 113.713 241.693 114.167 241.693 114.74C241.693 115.147 241.603 115.533 241.423 115.9C241.249 116.267 240.956 116.677 240.543 117.13L238.653 119.15H241.973ZM244.649 120.68L243.849 120.43L246.409 112.44L247.209 112.69L244.649 120.68ZM253.928 119.15V120H249.308V119.23L251.738 116.57C252.051 116.23 252.278 115.92 252.418 115.64C252.558 115.36 252.628 115.083 252.628 114.81C252.628 114.45 252.524 114.177 252.318 113.99C252.111 113.803 251.814 113.71 251.428 113.71C250.768 113.71 250.114 113.967 249.468 114.48L249.108 113.72C249.388 113.46 249.741 113.253 250.168 113.1C250.594 112.947 251.024 112.87 251.458 112.87C252.131 112.87 252.664 113.04 253.058 113.38C253.451 113.713 253.648 114.167 253.648 114.74C253.648 115.147 253.558 115.533 253.378 115.9C253.204 116.267 252.911 116.677 252.498 117.13L250.608 119.15H253.928ZM261.424 119.15V120H256.804V119.23L259.234 116.57C259.547 116.23 259.774 115.92 259.914 115.64C260.054 115.36 260.124 115.083 260.124 114.81C260.124 114.45 260.021 114.177 259.814 113.99C259.607 113.803 259.311 113.71 258.924 113.71C258.264 113.71 257.611 113.967 256.964 114.48L256.604 113.72C256.884 113.46 257.237 113.253 257.664 113.1C258.091 112.947 258.521 112.87 258.954 112.87C259.627 112.87 260.161 113.04 260.554 113.38C260.947 113.713 261.144 114.167 261.144 114.74C261.144 115.147 261.054 115.533 260.874 115.9C260.701 116.267 260.407 116.677 259.994 117.13L258.104 119.15H261.424Z" fill="#202020"/>
<path d="M21.028 89.184V90.072L19.348 90L20.248 91.416L19.48 91.86L18.7 90.36L17.92 91.86L17.164 91.416L18.064 90L16.384 90.072V89.184L18.076 89.268L17.176 87.84L17.932 87.396L18.712 88.896L19.48 87.396L20.248 87.852L19.348 89.268L21.028 89.184ZM33.5101 89.184V90.072L31.8301 90L32.7301 91.416L31.9621 91.86L31.1821 90.36L30.4021 91.86L29.6461 91.416L30.5461 90L28.8661 90.072V89.184L30.5581 89.268L29.6581 87.84L30.4141 87.396L31.1941 88.896L31.9621 87.396L32.7301 87.852L31.8301 89.268L33.5101 89.184ZM45.9921 89.184V90.072L44.3121 90L45.2121 91.416L44.4441 91.86L43.6641 90.36L42.8841 91.86L42.1281 91.416L43.0281 90L41.3481 90.072V89.184L43.0401 89.268L42.1401 87.84L42.8961 87.396L43.6761 88.896L44.4441 87.396L45.2121 87.852L44.3121 89.268L45.9921 89.184ZM58.4742 89.184V90.072L56.7942 90L57.6942 91.416L56.9262 91.86L56.1462 90.36L55.3662 91.86L54.6102 91.416L55.5102 90L53.8302 90.072V89.184L55.5222 89.268L54.6222 87.84L55.3782 87.396L56.1582 88.896L56.9262 87.396L57.6942 87.852L56.7942 89.268L58.4742 89.184ZM91.4204 89.184V90.072L89.7404 90L90.6404 91.416L89.8724 91.86L89.0924 90.36L88.3124 91.86L87.5564 91.416L88.4564 90L86.7764 90.072V89.184L88.4684 89.268L87.5684 87.84L88.3244 87.396L89.1044 88.896L89.8724 87.396L90.6404 87.852L89.7404 89.268L91.4204 89.184ZM103.902 89.184V90.072L102.222 90L103.122 91.416L102.354 91.86L101.574 90.36L100.794 91.86L100.038 91.416L100.938 90L99.2584 90.072V89.184L100.95 89.268L100.05 87.84L100.806 87.396L101.586 88.896L102.354 87.396L103.122 87.852L102.222 89.268L103.902 89.184ZM116.384 89.184V90.072L114.704 90L115.604 91.416L114.836 91.86L114.056 90.36L113.276 91.86L112.52 91.416L113.42 90L111.74 90.072V89.184L113.432 89.268L112.532 87.84L113.288 87.396L114.068 88.896L114.836 87.396L115.604 87.852L114.704 89.268L116.384 89.184ZM128.867 89.184V90.072L127.187 90L128.087 91.416L127.319 91.86L126.539 90.36L125.759 91.86L125.003 91.416L125.903 90L124.223 90.072V89.184L125.915 89.268L125.015 87.84L125.771 87.396L126.551 88.896L127.319 87.396L128.087 87.852L127.187 89.268L128.867 89.184ZM161.813 89.184V90.072L160.133 90L161.033 91.416L160.265 91.86L159.485 90.36L158.705 91.86L157.949 91.416L158.849 90L157.169 90.072V89.184L158.861 89.268L157.961 87.84L158.717 87.396L159.497 88.896L160.265 87.396L161.033 87.852L160.133 89.268L161.813 89.184ZM174.295 89.184V90.072L172.615 90L173.515 91.416L172.747 91.86L171.967 90.36L171.187 91.86L170.431 91.416L171.331 90L169.651 90.072V89.184L171.343 89.268L170.443 87.84L171.199 87.396L171.979 88.896L172.747 87.396L173.515 87.852L172.615 89.268L174.295 89.184ZM186.777 89.184V90.072L185.097 90L185.997 91.416L185.229 91.86L184.449 90.36L183.669 91.86L182.913 91.416L183.813 90L182.133 90.072V89.184L183.825 89.268L182.925 87.84L183.681 87.396L184.461 88.896L185.229 87.396L185.997 87.852L185.097 89.268L186.777 89.184ZM199.259 89.184V90.072L197.579 90L198.479 91.416L197.711 91.86L196.931 90.36L196.151 91.86L195.395 91.416L196.295 90L194.615 90.072V89.184L196.307 89.268L195.407 87.84L196.163 87.396L196.943 88.896L197.711 87.396L198.479 87.852L197.579 89.268L199.259 89.184Z" fill="#202020"/>
<path d="M232.368 95V93.284H228.564V92.36L232.584 86.54H233.604V92.24H234.84V93.284H233.604V95H232.368ZM232.368 92.24V88.028H232.692L229.572 92.576V92.24H232.368ZM238.399 95V93.956H240.319V87.596H240.943L238.819 88.916L238.315 87.992L240.679 86.54H241.555V93.956H243.355V95H238.399ZM249.591 95.108C248.623 95.108 247.867 94.9 247.323 94.484C246.787 94.068 246.519 93.488 246.519 92.744C246.519 92.344 246.599 91.992 246.759 91.688C246.919 91.376 247.143 91.124 247.431 90.932C247.719 90.74 248.051 90.62 248.427 90.572V90.788C248.083 90.716 247.783 90.584 247.527 90.392C247.271 90.192 247.071 89.948 246.927 89.66C246.791 89.364 246.723 89.04 246.723 88.688C246.723 87.984 246.983 87.432 247.503 87.032C248.023 86.632 248.719 86.432 249.591 86.432C250.471 86.432 251.171 86.632 251.691 87.032C252.211 87.432 252.471 87.984 252.471 88.688C252.471 89.04 252.399 89.364 252.255 89.66C252.119 89.948 251.923 90.192 251.667 90.392C251.411 90.584 251.111 90.712 250.767 90.776V90.572C251.151 90.62 251.483 90.744 251.763 90.944C252.043 91.136 252.263 91.384 252.423 91.688C252.583 91.992 252.663 92.344 252.663 92.744C252.663 93.488 252.391 94.068 251.847 94.484C251.311 94.9 250.559 95.108 249.591 95.108ZM249.591 94.124C250.223 94.124 250.699 94.004 251.019 93.764C251.339 93.516 251.499 93.148 251.499 92.66C251.499 92.172 251.339 91.808 251.019 91.568C250.699 91.328 250.223 91.208 249.591 91.208C248.967 91.208 248.491 91.328 248.163 91.568C247.843 91.808 247.683 92.172 247.683 92.66C247.683 93.148 247.843 93.516 248.163 93.764C248.491 94.004 248.967 94.124 249.591 94.124ZM249.591 90.224C250.127 90.224 250.543 90.1 250.839 89.852C251.143 89.596 251.295 89.248 251.295 88.808C251.295 88.376 251.143 88.036 250.839 87.788C250.543 87.54 250.127 87.416 249.591 87.416C249.055 87.416 248.639 87.54 248.343 87.788C248.047 88.036 247.899 88.376 247.899 88.808C247.899 89.248 248.047 89.596 248.343 89.852C248.639 90.1 249.055 90.224 249.591 90.224ZM256.186 95L260.314 87.116V87.584H255.73V86.54H261.454V87.464L257.554 95H256.186Z" fill="#202020"/>
</g>
<g clip-path="url(#clip3_358_20566)">
<path d="M246.5 49C256.165 49 264 41.165 264 31.5C264 21.835 256.165 14 246.5 14C236.835 14 229 21.835 229 31.5C229 41.165 236.835 49 246.5 49Z" fill="#E5EBFC"/>
</g>
<g clip-path="url(#clip4_358_20566)">
<path d="M248.598 31.9646C248.598 33.0032 247.756 33.8451 246.718 33.8451C245.679 33.8451 244.837 33.0032 244.837 31.9646C244.837 30.9259 245.679 30.084 246.718 30.084C247.756 30.084 248.598 30.9259 248.598 31.9646Z" stroke="#004BFE" stroke-linecap="round" stroke-linejoin="round"/>
<path d="M251.216 33.788C251.05 34.1631 251.13 34.6012 251.416 34.8943L251.453 34.9308C251.681 35.1588 251.809 35.4683 251.809 35.7909C251.809 36.1136 251.681 36.423 251.453 36.6511C251.225 36.8794 250.915 37.0076 250.593 37.0076C250.27 37.0076 249.961 36.8794 249.733 36.6511L249.696 36.6146C249.403 36.3279 248.965 36.2485 248.59 36.414C248.222 36.5715 247.984 36.9321 247.982 37.3319V37.4352C247.982 38.1067 247.438 38.651 246.766 38.651C246.095 38.651 245.55 38.1067 245.55 37.4352V37.3805C245.541 36.9688 245.28 36.6048 244.894 36.4626C244.519 36.2971 244.081 36.3765 243.788 36.6632L243.751 36.6997C243.523 36.928 243.214 37.0563 242.891 37.0563C242.568 37.0563 242.259 36.928 242.031 36.6997C241.803 36.4717 241.674 36.1622 241.674 35.8396C241.674 35.5169 241.803 35.2075 242.031 34.9794L242.067 34.943C242.354 34.6499 242.434 34.2118 242.268 33.8366C242.11 33.4692 241.75 33.2304 241.35 33.2288L241.247 33.2288C240.575 33.2288 240.031 32.6845 240.031 32.013C240.031 31.3416 240.575 30.7973 241.247 30.7973H241.301C241.713 30.7877 242.077 30.5273 242.219 30.1408C242.385 29.7657 242.305 29.3276 242.019 29.0345L241.982 28.998C241.754 28.77 241.626 28.4605 241.626 28.1379C241.626 27.8152 241.754 27.5058 241.982 27.2777C242.21 27.0494 242.52 26.9212 242.842 26.9212C243.165 26.9212 243.475 27.0494 243.703 27.2777L243.739 27.3142C244.032 27.6009 244.47 27.6803 244.845 27.5148H244.894C245.261 27.3573 245.5 26.9967 245.502 26.5969V26.4936C245.502 25.8221 246.046 25.2778 246.718 25.2778C247.389 25.2778 247.933 25.8221 247.933 26.4936V26.5483C247.935 26.948 248.174 27.3087 248.541 27.4662C248.916 27.6317 249.354 27.5523 249.648 27.2656L249.684 27.2291C249.912 27.0008 250.221 26.8725 250.544 26.8725C250.867 26.8725 251.176 27.0008 251.404 27.2291C251.633 27.4571 251.761 27.7666 251.761 28.0892C251.761 28.4119 251.633 28.7213 251.404 28.9494L251.368 28.9858C251.081 29.2789 251.002 29.7171 251.167 30.0922L251.167 30.1408C251.325 30.5082 251.685 30.7471 252.085 30.7487H252.188C252.86 30.7487 253.404 31.293 253.404 31.9644C253.404 32.6358 252.86 33.1801 252.188 33.1801H252.134C251.734 33.1817 251.373 33.4206 251.216 33.788L251.216 33.788Z" stroke="#004BFE" stroke-linecap="round" stroke-linejoin="round"/>
</g>
</g>
<defs>
<clipPath id="clip0_358_20566">
<rect width="280" height="155" fill="white"/>
</clipPath>
<clipPath id="clip1_358_20566">
<rect width="246" height="107.791" fill="white" transform="translate(16 14.209)"/>
</clipPath>
<clipPath id="clip2_358_20566">
<rect width="56.2259" height="34.7908" fill="white" transform="translate(16.035 14.209)"/>
</clipPath>
<clipPath id="clip3_358_20566">
<rect width="35" height="35" fill="white" transform="translate(229 14)"/>
</clipPath>
<clipPath id="clip4_358_20566">
<rect width="13.3731" height="13.3731" fill="white" transform="translate(240.031 25.2778)"/>
</clipPath>
</defs>
</svg>
